<?xml version="1.0" encoding="UTF-8" standalone="no"?>
<!-- Uploaded to: SVG Repo, www.svgrepo.com, Generator: SVG Repo Mixer Tools -->

<svg
   width="800px"
   height="800px"
   viewBox="-9 0 274 274"
   version="1.1"
   preserveAspectRatio="xMidYMid"
   id="svg8"
   sodipodi:docname="mastodon-icon.svg"
   inkscape:version="1.1.1 (3bf5ae0d25, 2021-09-20)"
   xmlns:inkscape="http://www.inkscape.org/namespaces/inkscape"
   xmlns:sodipodi="http://sodipodi.sourceforge.net/DTD/sodipodi-0.dtd"
   xmlns="http://www.w3.org/2000/svg"
   xmlns:svg="http://www.w3.org/2000/svg">
  <defs
     id="defs12" />
  <sodipodi:namedview
     id="namedview10"
     pagecolor="#ffffff"
     bordercolor="#666666"
     borderopacity="1.0"
     inkscape:pageshadow="2"
     inkscape:pageopacity="0.0"
     inkscape:pagecheckerboard="0"
     showgrid="false"
     inkscape:zoom="1.04"
     inkscape:cx="399.51923"
     inkscape:cy="399.51923"
     inkscape:window-width="1920"
     inkscape:window-height="1017"
     inkscape:window-x="-8"
     inkscape:window-y="-8"
     inkscape:window-maximized="1"
     inkscape:current-layer="svg8" />
  <path
     id="path2"
     style="stroke-width:2.91971;fill:#cccccc;fill-opacity:1"
     d="M 397.8125 0 C 295.64587 0.83527869 197.37022 11.89655 140.09766 38.199219 C 140.09766 38.199219 26.513672 89.013972 26.513672 262.37305 C 26.513672 302.07031 25.73887 349.53477 26.996094 399.87109 C 31.12082 569.40683 58.077944 736.49209 214.82617 777.98047 C 287.0993 797.11007 349.15037 801.11414 399.125 798.36719 C 489.75274 793.3426 540.62695 766.02344 540.62695 766.02344 L 537.63867 700.26953 C 537.63867 700.26953 472.87446 720.68979 400.14062 718.20117 C 328.07846 715.72979 252.00476 710.43006 240.34961 621.95508 C 239.27322 614.18355 238.73438 605.87387 238.73438 597.14648 C 238.73437 597.14648 309.47463 614.43742 399.125 618.54492 C 453.94339 621.05935 505.35286 615.33365 557.56641 609.10352 C 657.69651 597.14696 744.8783 535.45278 755.83594 479.08008 C 773.10125 390.27792 771.67773 262.37305 771.67773 262.37305 C 771.67773 89.013972 658.0957 38.199219 658.0957 38.199219 C 600.82747 11.89655 502.48889 0.83527869 400.32227 0 L 397.8125 0 z M 282.18555 135.45508 C 324.7417 135.45508 356.96911 151.8133 378.27734 184.53125 L 398.99219 219.25391 L 419.71094 184.53125 C 441.01485 151.8133 473.24227 135.45508 515.80273 135.45508 C 552.58084 135.45508 582.20983 148.38545 604.83984 173.60742 C 626.77669 198.82939 637.70117 232.91971 637.70117 275.82031 L 637.70117 485.73047 L 554.53906 485.73047 L 554.53906 281.99023 C 554.53906 239.04227 536.46939 217.24414 500.32422 217.24414 C 460.36001 217.24414 440.33008 243.10348 440.33008 294.23633 L 440.33008 405.75391 L 357.6582 405.75391 L 357.6582 294.23633 C 357.6582 243.10348 337.62437 217.24414 297.66016 217.24414 C 261.51498 217.24414 243.44531 239.04227 243.44531 281.99023 L 243.44531 485.73047 L 160.2832 485.73047 L 160.2832 275.82031 C 160.2832 232.91971 171.20535 198.82939 193.14648 173.60742 C 215.7722 148.38545 245.40315 135.45508 282.18555 135.45508 z "
     transform="matrix(0.3425,0,0,0.3425,-9,0)" />
  <path
     style="fill:#3088d4;fill-opacity:1;stroke:none;stroke-width:6.73077"
     d="M 344.71154,798.02708 C 287.74435,795.29663 218.64256,781.81232 182.79723,766.4316 105.59912,733.30697 59.19034,661.14782 39.449823,543.54644 31.042329,493.45997 27.75316,442.80412 26.820093,349.03846 26.190706,285.79016 27.348579,234.44004 29.812119,216.34615 38.250278,154.37066 62.324038,104.22712 101.59585,66.826923 120.78472,48.552552 138.86812,37.743422 164.22275,29.392462 220.42642,10.880866 302.77571,0.88248933 399.03846,0.88248933 c 96.8158,0 179.4258,10.04249767 235.09616,28.57949967 29.00895,9.659345 46.60666,20.888788 69.29936,44.221292 34.87773,35.861089 57.34853,85.223769 64.85201,142.463569 5.33865,40.72561 2.84232,140.06674 -5.31227,211.40055 -5.2947,46.31631 -8.92717,61.89421 -18.12775,77.74106 -11.11186,19.13881 -33.52472,41.03322 -58.83082,57.46999 -32.64793,21.20543 -75.37737,37.47519 -115.34207,43.91793 -13.57603,2.18861 -55.27277,6.93208 -81.25,9.2431 -23.45577,2.0867 -79.96946,2.90167 -102.4742,1.47776 -44.80401,-2.83484 -95.04798,-9.42803 -133.01428,-17.45461 -7.35521,-1.55499 -13.99415,-2.82725 -14.7532,-2.82725 -1.14876,0 -1.27221,1.57154 -0.73644,9.375 2.49786,36.38172 11.99227,60.40142 30.84696,78.03906 23.49226,21.97586 56.0424,30.97687 121.75084,33.66748 44.83674,1.83595 87.9644,-2.56346 131.07262,-13.3706 7.9327,-1.98871 14.58698,-3.4719 14.7873,-3.29596 0.20032,0.17593 1.01944,14.65949 1.82025,32.18569 1.24363,27.2173 1.26063,31.98678 0.11655,32.69504 -3.45253,2.13733 -26.7159,10.80486 -38.41928,14.31434 -32.77153,9.82719 -66.24069,15.26534 -106.57079,17.31588 -21.18693,1.07722 -26.39758,1.07571 -49.13787,-0.0142 z M 243.75,381.46516 c 0,-105.91657 0.25089,-114.87936 3.55903,-127.13824 4.90804,-18.18761 16.77861,-30.29408 34.03974,-34.71618 8.32332,-2.13234 25.31299,-2.09919 33.55508,0.0655 24.11204,6.33264 37.283,24.46143 41.24178,56.76611 0.66946,5.46287 1.06149,30.90199 1.0632,68.99038 l 0.003,60.33652 h 41.77256 41.77255 l 0.3811,-66.10577 c 0.41102,-71.29501 0.4158,-71.36624 5.7722,-86.04957 6.62929,-18.17262 18.45195,-29.23502 36.26313,-33.93124 8.16034,-2.1516 25.21904,-2.2075 33.40849,-0.10946 21.68882,5.55642 33.69905,21.62071 36.76631,49.17681 0.58385,5.24517 0.96637,49.84197 0.97116,113.22115 l 0.008,104.56731 h 41.86276 41.86277 l -0.33982,-118.02884 c -0.33419,-116.07345 -0.37401,-118.20408 -2.40377,-128.60577 -3.32112,-17.01933 -6.60752,-27.06713 -13.20887,-40.38462 -7.07085,-14.26463 -11.7745,-20.90415 -22.34096,-31.5357 -16.47397,-16.57546 -36.61051,-26.81088 -61.16702,-31.09124 -10.47108,-1.82517 -32.26504,-2.02867 -43.73606,-0.40839 -28.78083,4.06533 -53.59283,18.33377 -70.11734,40.32182 -3.02931,4.0309 -10.02106,14.99391 -15.53723,24.36228 -8.55985,14.53762 -10.19192,16.79181 -11.13871,15.38462 -0.61013,-0.90683 -5.90266,-9.65358 -11.76119,-19.43724 -5.85852,-9.78365 -13.53884,-21.1696 -17.06736,-25.30211 -15.86753,-18.58353 -37.80506,-30.62635 -63.50607,-34.86226 -12.45838,-2.05333 -35.43501,-2.04148 -47.0742,0.0243 -49.00272,8.69712 -83.84876,44.36237 -94.68479,96.91076 -3.67841,17.83813 -3.87291,24.87465 -3.87291,140.11452 V 486.53846 H 201.92308 243.75 Z"
     id="path26052"
     transform="matrix(0.3425,0,0,0.3425,-9,0)" />
</svg>
