<?xml version="1.0" encoding="UTF-8" standalone="no"?>
<svg
   xmlns:dc="http://purl.org/dc/elements/1.1/"
   xmlns:cc="http://creativecommons.org/ns#"
   xmlns:rdf="http://www.w3.org/1999/02/22-rdf-syntax-ns#"
   xmlns:svg="http://www.w3.org/2000/svg"
   xmlns="http://www.w3.org/2000/svg"
   xmlns:sodipodi="http://sodipodi.sourceforge.net/DTD/sodipodi-0.dtd"
   xmlns:inkscape="http://www.inkscape.org/namespaces/inkscape"
   width="846.74725"
   height="171.48248"
   id="svg4680"
   version="1.1"
   inkscape:version="0.91 r13725"
   sodipodi:docname="swirl.svg">
  <defs
     id="defs4702" />
  <sodipodi:namedview
     pagecolor="#ffffff"
     bordercolor="#666666"
     borderopacity="1"
     objecttolerance="10"
     gridtolerance="10"
     guidetolerance="10"
     inkscape:pageopacity="0"
     inkscape:pageshadow="2"
     inkscape:window-width="1582"
     inkscape:window-height="756"
     id="namedview4700"
     showgrid="false"
     fit-margin-top="0"
     fit-margin-left="0"
     fit-margin-right="0"
     fit-margin-bottom="0"
     inkscape:zoom="1"
     inkscape:cx="378.28491"
     inkscape:cy="215.29436"
     inkscape:window-x="0"
     inkscape:window-y="0"
     inkscape:window-maximized="0"
     inkscape:current-layer="svg4680" />
  <title
     id="title4682">swirl black</title>
  <metadata
     id="metadata1497">image/svg+xml<rdf:RDF>
  <cc:Work
     rdf:about="">
    <dc:format>image/svg+xml</dc:format>
    <dc:type
       rdf:resource="http://purl.org/dc/dcmitype/StillImage" />
  </cc:Work>
</rdf:RDF>
</metadata>
  <g
     id="g5266"
     transform="translate(111.61824,-114.92299)"
     style="fill:#808080;fill-opacity:1">
    <path
       sodipodi:nodetypes="sccccccssscscccscsssccscsssscssssssccscssssscsscscsscssccscccccsssccscscccccccsccssscscccscsssccccccscsscscsscssssscsccsssssscsscccsssccccscsccsccccsc"
       id="path1406"
       d="m 289.62799,130.08501 c 0,6.24098 3.577,16.041 11.13901,25.84298 0.89999,1.345 1.79599,2.23101 3.11899,3.57201 l 0,6.686 0,1.78299 0,6.239 c -4.9,-2.67299 -15.59699,-8.46798 -28.07199,-11.14299 1.777,6.239 -0.43201,11.59101 -7.58701,11.59101 -5.34799,0 -9.35199,-3.12101 -14.70398,-3.12101 -5.785,0 -9.35202,3.12101 -9.35202,6.683 0,3.56101 0.452,7.579 3.11301,12.03301 -0.88999,0 -12.47101,-4.01001 -12.47101,-12.03301 0,-7.582 3.56702,-12.92199 8.91501,-16.039 -28.97699,4.00701 -52.155,17.823 -73.10199,32.976 0.89,6.68001 3.11699,12.921 6.24299,17.827 0.88401,-10.256 6.69001,-22.28699 20.506,-22.28699 11.591,0 23.18201,3.569 25.849,20.95 -3.11899,-1.34002 -6.67499,-2.67101 -11.591,-2.67101 -4.004,0 -8.467,5.793 -8.467,10.24301 0,8.47299 8.02901,16.939 21.39601,16.939 34.31501,0 44.12699,-25.85102 43.667,-41.44802 l 5.358,0 c 0,35.657 -25.849,50.804 -49.025,50.804 -34.31401,0 -54.36801,-19.15799 -60.60101,-45.45298 -29.442,21.83699 -55.27899,44.56797 -87.818,44.56797 -14.252998,0 -27.635986,-5.35 -27.635986,-21.401 0,-16.03798 9.80999,-19.60598 17.82399,-19.60598 9.361,0 16.505997,6.68299 16.505997,12.92201 0,7.57899 -7.581001,10.69999 -12.044998,8.91697 2.229012,-2.233 3.120003,-4.45397 3.120003,-8.47097 0,-3.56202 -4.900002,-8.01401 -9.356003,-8.01401 -8.0158,0 -12.045197,6.235 -12.045197,14.25198 0,10.25702 7.581207,15.16101 18.281197,15.16101 22.726006,0 30.301007,-46.35199 53.482997,-46.35199 11.154,0 13.38301,8.47 13.38301,11.58699 0,2.67701 -0.90601,9.36 -0.90601,9.36 8.47101,-5.79199 16.933,-12.47699 26.295,-19.61399 -0.438,-3.564 -0.885,-7.125 -0.885,-11.14099 0,-2.66501 0,-5.79401 0.44899,-8.461 C 142.10001,175.987 132.748,161.278 132.748,151.478 c 0,-9.804 6.23301,-16.939 16.045,-16.939 6.24201,0 11.13901,5.793 11.13901,11.58701 0,4.46199 -1.77501,7.58099 -7.12701,7.58099 -4.01,0 -6.239,-3.573 -6.239,-5.794 0,-5.35 4.89401,-4.906 4.89401,-6.691 -1.317,-1.77499 -3.552,-0.888 -5.34801,-0.888 -3.552,0 -8.904,4.015 -8.904,10.254 0,12.91901 12.93501,19.164 26.29501,18.272 6.239,-32.53401 35.653,-51.25999 64.183,-51.25999 23.17199,0 42.33899,9.36601 59.27899,24.51799 -2.229,-3.571 -4.02399,-8.469 -4.02399,-14.26198 0,-7.13602 2.68698,-12.93303 8.91999,-12.93303 8.02499,0 12.02902,5.35002 13.82501,11.14301 -8.039,-2.67101 -16.05802,-1.331 -16.05802,4.01901 z M 118.923,217.436 c -4.897,0 -10.701,8.469 -17.372,17.83701 4.462,-2.23303 15.595,-8.02499 21.375,-12.93103 0,-2.23297 0.893,-4.90597 -4.003,-4.90598 z m 55.278,-45.901 c -2.686,5.792 -4.009,11.59 -4.009,16.48301 14.70999,-10.24501 30.743,-20.50101 49.47801,-27.18601 -14.71,2.675 -32.10701,7.13699 -45.46901,10.703 z m 65.06801,-46.8 c 3.11899,3.56401 3.55698,4.01001 3.55698,8.02699 0,6.68302 -3.55698,11.13501 -13.80399,11.13501 -4.91601,0 -9.81,-1.777 -13.819,-1.777 -16.934,0 -29.869,11.145 -37.44999,23.178 17.39299,-4.906 42.34999,-12.031 72.218,-12.031 -1.797,-1.344 -2.68701,-3.575 -2.68701,-6.69699 0,-4.00701 1.79699,-7.123 7.12899,-9.35401 -0.432,8.026 4.46402,11.14299 14.27402,11.14299 7.58099,0 9.81,2.67301 9.81,6.237 l -0.90402,2.67701 c 9.37201,2.673 19.626,6.234 24.078,8.025 -21.39899,-25.40699 -41.90598,-40.119 -62.40198,-40.563 z m 305.74698,119.894 c -32.54102,0 -58.37799,-22.73099 -87.798,-44.568 -5.80698,26.29502 -26.29099,45.45301 -60.633,45.45301 -22.72,0 -49.01898,-15.14902 -49.01898,-50.804 l 5.36398,0 c 0,15.597 9.78101,41.44801 43.65702,41.44801 13.39099,0 21.402,-8.46802 21.402,-16.93903 0,-4.44999 -4.457,-10.24299 -8.46301,-10.24299 -4.89801,0 -8.47201,1.33101 -11.58899,2.671 2.66498,-17.38099 14.25598,-20.94999 25.84699,-20.94999 14.268,0 19.61999,12.03099 20.50601,22.28698 C 447.41,208.078 449.63501,201.837 450.52899,195.157 429.582,180.004 406.41,166.186 377.44,162.181 c 5.33301,3.115 8.90399,8.455 8.90399,16.03799 0,8.026 -11.58099,12.03401 -12.47699,12.03401 2.66501,-4.45401 3.11899,-8.472 3.11899,-12.03401 0,-3.56099 -3.11899,-6.68199 -9.358,-6.68199 -5.354,0 -9.358,3.121 -14.69998,3.121 -7.13501,0 -9.36801,-5.354 -7.58701,-11.591 -12.475,2.677 -23.17199,8.47 -28.06799,11.143 l 0,-6.23901 0,-1.78299 0,-6.686 3.54999,-3.57201 c 7.57501,-9.80199 10.70401,-19.60199 10.70401,-25.84299 0,-5.35 -8.017,-6.69 -16.05002,-4.017 1.79602,-5.79299 5.798,-11.143 13.81702,-11.143 6.23898,0 8.914,5.797 8.914,12.933 0,5.793 -1.78101,10.69099 -4.004,14.26199 17.37598,-15.15199 36.09,-24.518 59.26099,-24.518 28.988,0 57.945,18.72601 64.195,51.26001 13.36197,0.89 26.29099,-5.355 26.29099,-18.27201 0,-6.23899 -4.89997,-10.25399 -8.90399,-10.25399 -1.80201,0 -4.02503,-0.889 -5.35401,0.888 0,1.787 4.90003,1.341 4.90003,6.69101 0,2.22099 -1.78101,5.79399 -6.23902,5.79399 -5.354,0 -7.134,-3.11901 -7.134,-7.581 0,-5.792 4.89999,-11.587 11.13797,-11.587 9.81006,0 16.04901,7.13299 16.04901,16.93899 0,9.8 -9.35797,24.509 -29.86298,22.28801 0.443,2.66499 0.443,5.79399 0.443,8.461 0,4.01599 0,7.577 -0.443,11.14099 8.926,7.13901 17.818,13.82201 25.85901,19.614 0,0 -0.88598,-6.683 -0.88598,-9.35999 0,-3.115 2.66497,-11.587 13.36297,-11.587 23.18201,0 30.75702,46.35199 53.47699,46.35199 10.69403,0 18.28302,-4.90399 18.28302,-15.16101 0,-8.01699 -4.02502,-14.25199 -12.04504,-14.25199 -4.45697,0 -9.35797,4.452 -9.35797,8.01401 0,4.017 0.89697,6.23798 3.11999,8.47101 -4.45801,1.785 -12.03302,-1.33801 -12.03302,-8.91701 0,-6.239 7.57501,-12.92201 16.50202,-12.92201 8.00799,0 17.81799,3.56801 17.81799,19.60599 0.002,16.04901 -13.35999,21.39902 -27.62799,21.39902 z M 405.95401,142.11999 c -4.00501,0 -8.90302,1.77701 -13.815,1.77701 -9.79901,0 -13.814,-4.45199 -13.814,-11.13499 0,-4.017 0.896,-4.463 3.56098,-8.027 -20.49598,0.44599 -41.01099,15.156 -62.38199,40.56099 4.43799,-1.789 14.70001,-5.34999 24.05801,-8.02501 l -0.88602,-2.677 c 0,-3.56398 2.21302,-6.237 9.79001,-6.237 9.80799,0 14.70801,-3.11699 14.27799,-11.14299 5.354,2.23101 7.12301,5.349 7.12301,9.35399 0,3.12201 -0.88501,5.35301 -2.67501,6.69702 29.862,0 54.81701,7.125 72.64401,12.03099 -8.021,-12.03099 -20.948,-23.17601 -37.88199,-23.17601 z m 41,29.41501 c -13.362,-3.56401 -30.73902,-8.028 -45.448,-10.70099 18.71399,6.683 34.763,16.93898 49.47299,27.18599 0,-4.89499 -1.34601,-10.693 -4.02499,-16.485 z m 55.27798,45.901 c -3.57098,0 -4.00299,2.67301 -4.00299,4.90598 5.77399,4.90604 16.93299,10.698 21.37097,12.93103 -6.67095,-9.367 -12.47497,-17.83701 -17.36798,-17.83701 z"
       inkscape:connector-curvature="0"
       style="fill:#808080;fill-opacity:1" />
    <g
       id="g1416"
       style="fill:#808080;fill-opacity:1">
      <path
         style="fill:#808080;fill-opacity:1"
         inkscape:connector-curvature="0"
         d="m 709.98999,266.04999 c -13.55597,9.93902 -35.78198,22.949 -109.33301,15.54101 -20.06396,-1.98901 -39.95196,-5.05899 -60.19098,-8.13101 -12.65197,-1.80697 -25.47699,-3.436 -38.31402,-4.69998 -9.03797,-0.90402 -31.80799,-3.255 -40.30197,-2.349 -8.862,0.90399 -12.29001,3.979 -12.47702,5.604 0,0.35999 -0.17499,1.08698 0.18701,1.447 0.18701,1.083 0.906,1.80798 0.906,2.52899 -0.18701,1.63 -4.34399,3.25299 -8.13299,2.89401 -2.53202,-0.181 -5.064,-1.80902 -4.88901,-3.979 0.362,-1.98301 6.69101,-9.75901 21.875,-11.92603 12.29001,-1.62396 26.38303,0 74.64298,4.69901 59.992,5.966 100.30603,6.14401 130.84802,-4.15299 22.40899,-7.414 56.39001,-26.56799 59.63299,-53.862 3.07801,-24.394 -18.427,-36.142 -36.50201,-37.95 -37.40796,-3.617 -75.00098,29.278 -77.89496,52.415 -1.62701,12.82901 9.39795,19.87701 21.14398,20.962 12.47699,1.26599 22.59601,-3.793 31.448,-10.29901 15.90601,-11.74798 17.71802,-20.24699 18.25,-24.21998 0.547,-4.155 -0.17401,-7.58901 -2.16199,-10.11801 -1.63501,-1.989 -2.893,-2.17 -5.06298,-2.351 -0.90601,0 -2.34705,-0.185 -2.172,-1.62999 0.18695,-1.98702 2.172,-1.806 2.90295,-1.62702 5.96204,0.541 13.54901,7.77001 12.09601,19.69701 -2.52197,19.702 -27.46399,36.508 -54.21899,33.797 -21.86499,-2.168 -31.79901,-18.25199 -29.81201,-33.61299 3.25299,-26.74901 42.289,-52.77601 79.69702,-48.98101 33.62097,3.25501 56.21698,30.185 52.59198,60.54502 -2.17401,17.16897 -11.56299,30 -24.758,39.75897 z"
         id="path1418" />
    </g>
    <g
       id="g1420"
       style="fill:#808080;fill-opacity:1">
      <path
         style="fill:#808080;fill-opacity:1"
         inkscape:connector-curvature="0"
         d="m -111.2384,228.91299 c -3.6185,-30.36 18.971402,-57.29199 52.597901,-60.54499 37.408199,-3.795 76.443798,22.23001 79.702709,48.98001 1.981201,15.36201 -7.958511,31.446 -29.821209,33.61399 -26.754971,2.711 -51.691799,-14.09698 -54.219501,-33.79701 -1.4505,-11.92698 6.1404,-19.15799 12.101871,-19.69699 0.731167,-0.181 2.716389,-0.36 2.897209,1.62799 0.18082,1.442 -1.261879,1.62902 -2.167992,1.62902 -2.171909,0.181 -3.433788,0.362 -5.065189,2.347 -1.987198,2.52899 -2.7066,5.96499 -2.162098,10.11799 0.534599,3.97701 2.3409,12.474 18.250046,24.224 8.852753,6.504 18.971363,11.56101 31.444752,10.29898 11.746113,-1.08697 22.7747,-8.13498 21.143311,-20.96399 -2.893311,-23.13299 -40.48621,-56.028 -77.894402,-52.41499 -18.077095,1.808 -39.576198,13.556 -36.501998,37.95399 3.246993,27.29001 37.223288,46.448 59.63837,53.85801 30.542522,10.29901 70.847919,10.11902 130.847614,4.15701 C 137.813,265.604 151.90401,263.978 164.19701,265.604 c 15.17999,2.16901 21.50898,9.94101 21.86799,11.92801 0.181,2.16999 -2.35,3.79999 -4.884,3.97898 -3.793,0.35901 -7.94701,-1.26798 -8.133,-2.896 0,-0.72098 0.721,-1.44199 0.90599,-2.52899 0.36101,-0.35999 0.18502,-1.08301 0.18502,-1.44299 -0.18502,-1.62702 -3.61901,-4.70002 -12.47602,-5.60602 -8.49299,-0.90399 -31.26799,1.445 -40.30099,2.349 -12.83701,1.26602 -25.664002,2.89502 -38.315003,4.70001 -20.237,3.074 -40.126099,6.14401 -60.184395,8.13501 -73.556454,7.41 -95.786705,-5.60602 -109.339104,-15.543 -13.190804,-9.759 -22.589998,-22.59399 -24.761898,-39.76502 l 0,0 0,0 z"
         id="path1422" />
    </g>
  </g>
</svg>
